<?xml version="1.0" encoding="iso-8859-1"?>
<!-- Generator: Adobe Illustrator 16.0.0, SVG Export Plug-In . SVG Version: 6.00 Build 0)  -->
<!DOCTYPE svg PUBLIC "-//W3C//DTD SVG 1.1//EN" "http://www.w3.org/Graphics/SVG/1.1/DTD/svg11.dtd">
<svg version="1.1" id="Capa_1" xmlns="http://www.w3.org/2000/svg" xmlns:xlink="http://www.w3.org/1999/xlink" x="0px" y="0px"
	 width="30px" height="30px" viewBox="0 0 612 612" style="enable-background:new 0 0 612 612;" xml:space="preserve">
<g>
	<g id="Rectangle_45_copy_6">
		<g>
			<path d="M612,285.6h-55.066C550.079,161.31,450.704,61.935,326.4,55.094V0h-27.2v55.094
				C174.896,61.935,75.521,161.31,68.667,285.6H0v27.2h68.667C75.521,437.091,174.896,536.466,299.2,543.32V612h27.2v-68.68
				c124.304-6.854,223.679-106.229,230.533-230.521H612V285.6z M529.733,285.6H326.4V82.28
				C435.689,89.066,522.961,176.324,529.733,285.6z M299.2,82.28V285.6H95.866C102.639,176.324,189.91,89.066,299.2,82.28z
				 M95.866,312.8H299.2v203.32C189.91,509.334,102.639,422.062,95.866,312.8z M326.4,516.12V312.8h203.333
				C522.961,422.062,435.689,509.334,326.4,516.12z"/>
		</g>
	</g>
</g>
<g>
</g>
<g>
</g>
<g>
</g>
<g>
</g>
<g>
</g>
<g>
</g>
<g>
</g>
<g>
</g>
<g>
</g>
<g>
</g>
<g>
</g>
<g>
</g>
<g>
</g>
<g>
</g>
<g>
</g>
</svg>
